<svg xmlns="http://www.w3.org/2000/svg" viewBox="0 0 59 57">
    <linearGradient id="grad" gradientUnits="userSpaceOnUse" x1="5.987" x2="60.001" y1="32.221" y2="32.221">
        <stop offset="0" stop-color="#00c0ff"/>
        <stop offset="1" stop-color="#5558ff"/>
    </linearGradient>
    <g fill="url(#grad)">
        <path d="m58.08.52c-.19 4.02-1.84 12.35-11.62 18.64-.0249718.0142446-.0484264.0309979-.07.05-1.0161594-.1147936-1.9900168-.4714175-2.84-1.04-.4550261-.2440793-1.0210631-.101585-1.306288.3288453s-.1958368 1.0072424.206288 1.3311547c.5089119.3335501 1.0519917.6117947 1.62.83-2.78 1.72-4.76 2.82-6.29 3.66-1.8665126.8824621-3.5758223 2.0647909-5.06 3.5-1.7885509.2388649-3.6084335-.0063185-5.27-.71-.4835272-.2013504-1.0404963.0045141-1.2768341.4719378s-.0719586 1.0380149.3768341 1.3080622c1.3905677.6588227 2.9112749.9971373 4.45.99-.88 1.17-1.93 2.72-3.32 4.8-2.5 1.1-6.04 2.02-9.23.42-.321539-.1607695-.7044229-.1377877-1.0044229.0602885s-.4715391.5411543-.45.9000001c.021539.3588457.2328838.6789419.5544229.8397114 1.4526709.7127751 3.0519605 1.075783 4.67 1.06 1.1166903-.0085461 2.228192-.1529406 3.31-.43-3.5586867 4.0977275-9.0296419 5.9912266-14.36 4.97-.9810532-.2025834-1.89767892-.6420144-2.67-1.28.18-.77.38-1.56.61-2.37 5.69-15.13 12.64-17.2 22.26-20.06 5.9776791-1.5789473 11.7328951-3.9038799 17.13-6.92.4804877-.2761424.6461424-.8895123.37-1.37s-.8895123-.64614237-1.37-.37c-5.2602173 2.9418124-10.8714171 5.2064524-16.7 6.74-9.79 2.91-17.51 5.21-23.56 21.27l-.43.87c-.01745027.0279957-.03091314.0582872-.04.09-.13695111-.2573248-.25396104-.5247761-.35-.8-1.65053446-4.5000749-1.81178966-9.4113477-.46-14.01.02-.09.06-.18.09-.27.24579874.8942101.62326387 1.7468768 1.12 2.53.18398349.2793852.4954809.4482694.83.45.19661035.0023152.38898717-.0571467.55-.17.22135935-.1448544.37553682-.372277.42814026-.6315368s-.00074331-.5287887-.14814026-.7484632c-.79429813-1.4711963-1.28724352-3.0860173-1.45-4.75 1.64659285-3.3384029 4.054653-6.2431468 7.03-8.48-.9198657 2.1425923-1.399375 4.4483179-1.41 6.78 0 .5522847.4477153 1 1 1s1-.4477153 1-1c.0413579-3.2076784 1.0370022-6.3303807 2.86-8.97 2.7058195-1.43669659 5.6385598-2.39736354 8.67-2.84-.5321709.74973125-1.0068588 1.53864919-1.42 2.36-.2469243.4916536-.050313 1.0904244.44 1.34.1379663.0749575.2930123.1128577.45.11.3778306.0033632.7240094-.2105675.89-.55.645248-1.27714783 1.4555168-2.46397311 2.41-3.53 2.31-.14 4.64-.1 6.91-.04.81.01 1.61.03 2.41.04-.2398069.59865418-.4369656 1.21352205-.59 1.84-.1321055.53564913.1945496 1.07709118.73 1.21.5356491.1321055 1.0770912-.19454964 1.21-.73.1974811-.80352971.4860144-1.58189869.86-2.32 5.97-.09 11.93-1.07 17.25-6.4z"/>
        <path d="m11 55h-7.58l3.29-3.29c.17764986-.1788047.28122547-.4181001.29-.67.20679609-3.3114466.70878833-6.5978225 1.5-9.82-.50761515-.4094948-.9523578-.8912994-1.32-1.43-.1519903-.2205423-.28896644-.4510631-.41-.69-.74312757 1.5203562-1.61286215 2.975489-2.6 4.35-2.50662216 3.7256871-3.94846458 8.065045-4.17 12.55-.00154441.4047905.24422935.769487.62.92.11865551.0560524.24881668.0834547.38.08h10c.5522847 0 1-.4477153 1-1s-.4477153-1-1-1zm-5.27-10.3c-.33977448 1.9394557-.57677192 3.8955191-.71 5.86l-2.71 2.71c.57002056-3.0524174 1.7318518-5.9637899 3.42-8.57z"/>
        <path d="m47 55h-32c-.5522847 0-1 .4477153-1 1s.4477153 1 1 1h32c.5522847 0 1-.4477153 1-1s-.4477153-1-1-1z"/>
    </g>
</svg>
