<svg xmlns="http://www.w3.org/2000/svg" viewBox="0 0 128 128">
    <linearGradient id="grad" gradientUnits="userSpaceOnUse" x1="0" x2="128" y1="128" y2="0">
        <stop offset="0" stop-color="#4d25ff"/>
        <stop offset="1" stop-color="#00c0ff"/>
    </linearGradient>
    <g fill="url(#grad)">
        <path d="M77.76,18.21c0.05-0.01,0.09-0.03,0.14-0.05c10.76-3.35,16.23-4.73,26.81-11.13
	c0.04-0.02,0.09-0.05,0.13-0.08c2.67-1.48,5.94-1.4,8.54,0.19c2.62,1.61,4.15,4.49,4.02,7.55c0,0.09-0.01,0.19-0.02,0.29
	c-1.39,11.98-6.62,34.13-26.8,53.84C75.86,83.24,61.67,90.48,51.92,94.08c2.51-5.07,41.44-56.39,43.29-57.27
	c0,0-22.19,20.22-33.37,32.82c-10.69,12.06-22.51,28.5-26.18,33.68L31,104l0,0v-4c2-3,3-5,3.29-8.42
	c-0.65-5.41-1.73-18.33,0.86-30.25c4-18.44,18.38-28.83,18.38-28.83c0.9-0.66,2.01-0.89,3.06-0.69l-0.72,3.92
	c-1.28,7.82-1.13,12.71,0.93,18c0,0,2.57-29,20.23-35.27C77.27,18.37,77.52,18.29,77.76,18.21z"/>
        <path d="M61,21c-2-1-51,3-54,6s5.45,89.45,8,92c3,3,73-4,76-6s-1-37-2-36c-1.58,1.58-5,4-7,6
	c-1.58,1.58,3,22,0,24c-1.86,1.24-56,6-59,5c-2.12-0.71-9-74-8-79c6-3,33-3,35-4"/>
    </g>
</svg>
